<svg id="Layer_1" data-name="Layer 1" xmlns="http://www.w3.org/2000/svg" viewBox="0 0 884.44 312.11"><defs><style>.cls-1{fill:#2e9fff;}.cls-2{fill:#fff;}</style></defs><path class="cls-1" d="M764.23,35.59c27.27,0,54.54,0,81.81,0V96.4c-7,0-14,0-21.06,0q0-19.86,0-39.73-30.39,0-60.77,0C764.21,49.62,764.19,42.6,764.23,35.59Z"/><path class="cls-2" d="M38.41,97.33c7.93.06,15.84-.26,23.75.3a180.5,180.5,0,0,0-1.7,25.44c0,32.73,0,65.44,0,98.16,25.84-.47,51.79,1.12,77.58-1,0,7,0,14.06,0,21.11A204.29,204.29,0,0,0,109.59,240c-23.71.19-47.43-.47-71.15.56a210.92,210.92,0,0,0,1.48-22q0-48.7,0-97.37A219.88,219.88,0,0,0,38.41,97.33Z"/><path class="cls-2" d="M505.74,97.29c7.56.06,15.11.08,22.67-.07-1.87,13.52-1.14,27.18-1.27,40.77q0,41.19,0,82.36c0,6.58.64,13.15,1.18,19.71-7.52-.15-15-.13-22.54-.09,1.79-13.94,1.18-28,1.27-42,0-26.86,0-53.7,0-80.54A175.94,175.94,0,0,0,505.74,97.29Z"/><path class="cls-2" d="M551.94,97.31q11.89,0,23.81,0,.06,10.5,0,21c-7.93,0-15.88,0-23.81,0Q551.88,107.83,551.94,97.31Z"/><path class="cls-2" d="M714.36,110.27c7.43.21,14.85.17,22.28.14-1.14,9.16-1,18.4-.94,27.6a191.08,191.08,0,0,0,26.64-1.29v18.87a171.86,171.86,0,0,0-26.64-1.19c0,20.12-.05,40.27,0,60.39-.11,3.42.9,7.56,4.44,8.94,7,2.21,14.49.15,20.74-3.29,1.27,5.82,2.58,11.62,4.06,17.38-11.56,4.93-25.14,6.19-37.15,2.09-8.11-2.66-12.27-11.39-12.14-19.47-.2-22,0-44.05-.09-66.08a171,171,0,0,0-23.4,1.22c.06-6.25.06-12.48,0-18.71A189.52,189.52,0,0,0,715.58,138,260.17,260.17,0,0,0,714.36,110.27Z"/><path class="cls-2" d="M391.05,136.4c16.76-6.84,35.48-10,53.34-6,10.74,2.45,20.69,9.11,26,18.89,3.36,6.23,3.78,13.48,3.89,20.41,0,25,0,49.93,0,74.9H457.86c-.52-4.34-1.14-8.66-1.8-13-8.71,8.16-20.12,13.75-32.24,13.57-10.21.48-21.08-2.23-28.51-9.62-10.19-10.34-12.34-26.86-7.37-40.17,4.06-10.42,14-17.55,24.64-20.09,13.93-3.43,28.54-1.11,42.14,2.84-.23-7.07.91-14.91-3.15-21.17-5.21-7.76-14.9-11.09-23.94-11.06-11.87-.59-23.45,2.73-34.49,6.79C392.45,147.27,391.76,141.85,391.05,136.4Zm24.41,56.69c-14,5.69-12.65,29.11,1.4,33.92,13.6,4.82,28.13-2.34,37.84-11.83-.08-7,0-14-.06-21C441.92,191.52,428,187.75,415.46,193.09Z"/><path class="cls-2" d="M156.69,153.12c17.6-24.52,60.08-24.57,77.12.6,8.26,11.54,9.63,26.13,10.08,39.9-26,.09-52,0-77.92,0,.46,9.28,3.05,19.06,10.32,25.35,14.55,13.73,42.72,8.12,48.46-11.93,6.19,2,12.37,4,18.44,6.26-4.93,12.5-15.24,22.88-28.16,27-16.31,5.18-35.52,3.76-49.57-6.6-11.37-8.34-17.43-22.28-18.76-36C145.09,182.34,147.43,165.82,156.69,153.12Zm18.91,6.08c-5,5-7.69,11.71-9.17,18.52,19.08.08,38.18,0,57.26,0-1.09-6.34-2.85-12.89-7.48-17.62C206.18,148.54,186.15,148.07,175.6,159.2Z"/><path class="cls-2" d="M289.67,138.55c17.3-5.14,38.65-2.69,50.88,11.79-.34-4.12-.47-8.21-.53-12.33h20.49c-2.87,31.65-.08,63.52-1.63,95.24-.75,12.59-5,26.15-15.83,33.67-14.06,9.58-32,10.64-48.44,8.92-13.07-1.44-24.95-8.36-33.74-18q8.25-5.9,16.68-11.58c5,5.52,10.68,11,18.18,12.68,12.54,2.79,27.44,1.27,36.72-8.45,7.07-7.22,7.18-18,8.3-27.35-8.3,11.47-23.1,16.24-36.79,15.47-14.77.13-29.79-7-37.63-19.81-9.18-15.05-10-34.15-5.22-50.83C265,154.25,275.89,142.65,289.67,138.55Zm9.51,15.32C288,157,281,168.16,279.46,179.22c-1.87,12.43-.22,26.82,9.09,36.06,12.07,11.59,33.72,8.68,43.32-4.66,9.3-12.59,10-31.09,2-44.5C327,154.6,311.76,149.78,299.18,153.87Z"/><path class="cls-2" d="M607.9,144.45c13.26-10.74,32.08-10.93,48-7.22a33.09,33.09,0,0,1,24.54,25.49c-6.85,1.05-13.71,1.91-20.54,2.92-2.62-17.17-27.33-19.87-38.29-9.26-5.27,4.75-3.87,14.23,2.81,17,15.67,7.36,34.62,6.06,49.17,16.19,13,9.37,13.43,30.49,1.95,41.24-10.1,9.88-25,12-38.57,11.56-12.57-.22-26.26-3.48-34.87-13.29-4.58-5-6.6-11.55-8.28-17.94q10.68-1.44,21.41-2.77c1.2,7.57,6.36,14.46,13.94,16.57,10.1,2.69,22.35,2.56,30.65-4.6,6.2-5.44,4.55-16.7-3.27-19.73-16.18-6.74-35.67-5.59-49.73-17.21C595.05,173.7,596.23,153.7,607.9,144.45Z"/><path class="cls-2" d="M552.41,138h22.8c-2.1,16.14-1.09,32.43-1.31,48.65.24,17.77-.83,35.61,1.34,53.31q-11.44,0-22.85,0c2.19-17.71,1.18-35.58,1.4-53.36C553.6,170.39,554.48,154.12,552.41,138Z"/></svg>